<?xml version="1.0" encoding="UTF-8" standalone="no"?>
<svg
   version="1.1"
   id="svg18"
   viewBox="55 450 480 260"
   sodipodi:docname="Bhaskar Masale Hindi and English Logo.cdr"
   xmlns:inkscape="http://www.inkscape.org/namespaces/inkscape"
   xmlns:sodipodi="http://sodipodi.sourceforge.net/DTD/sodipodi-0.dtd"
   xmlns="http://www.w3.org/2000/svg"
   xmlns:svg="http://www.w3.org/2000/svg">
  <defs
     id="defs18" />
  <sodipodi:namedview
     id="namedview18"
     pagecolor="#ffffff"
     bordercolor="#000000"
     borderopacity="0.25"
     inkscape:showpageshadow="2"
     inkscape:pageopacity="0.0"
     inkscape:pagecheckerboard="0"
     inkscape:deskcolor="#d1d1d1"
     inkscape:document-units="pt" />
  <g
     id="Layer1000">
    <g
       id="Layer1001">
      <g
         id="Layer1002">
        <path
           d="m 331.1108,541.3439 24.3513,-14.3749 -26.5728,7.3577 23.2406,-20.5745 -26.7437,13.5574 17.0886,-22.6865 -21.7026,16.6231 14.0981,-28.341 -21.019,23.7765 7.9462,-30.7936 -15.1234,26.0928 1.9652,-32.7693 -9.9969,30.0442 -4.6993,-35.2901 -4.1867,36.0395 -9.3988,-26.4335 1.7089,28.5455 -17.7722,-30.6574 10.0823,35.4263 -20.6772,-22.3458 14.5253,28.0004 -24.4368,-17.5088 18.7975,22.959 -24.9494,-11.6498 22.1298,18.6669 -26.6582,-6.8809 24.6076,13.8299 -29.3925,-1.9076 28.7944,9.4016 -82.3672,15.3287 238.3864,-0.6131 -81.3419,-15.465 28.4526,-9.8103 z"
           style="fill:#ffcb00;fill-rule:evenodd"
           id="path1" />
        <g
           id="Layer1003">
          <path
             d="m 293.3107,501.9857 c 15.878,0 28.7496,12.8718 28.7496,28.7495 0,15.878 -12.8716,28.7496 -28.7496,28.7496 -15.878,0 -28.7495,-12.8716 -28.7495,-28.7496 0,-15.8777 12.8715,-28.7495 28.7495,-28.7495 z"
             style="fill:#f07c00;fill-rule:evenodd"
             id="path2" />
          <path
             d="m 293.3107,503.9702 c 14.7821,0 26.7653,11.9832 26.7653,26.765 0,14.7819 -11.9832,26.7651 -26.7653,26.7651 -14.7818,0 -26.765,-11.9832 -26.765,-26.7651 0,-14.7818 11.9832,-26.765 26.765,-26.765 z"
             style="fill:#ffffff;fill-rule:evenodd"
             id="path3" />
          <path
             d="m 312.0982,526.4223 c -1.3647,1.3114 -2.453,2.2601 -4.0687,2.1417 -0.1358,-0.01 -0.5713,0.7455 -0.6527,0.8576 -2.2239,3.056 -5.3746,4.8706 -8.0377,4.0735 -1.1898,-0.183 -2.0297,-1.6745 -2.2585,-3.0473 -0.0261,-1.1797 0.2002,-2.4906 0.628,-3.8126 1.2323,-3.8058 4.1383,-7.7037 7.5169,-8.8294 0.8062,-0.2686 1.6436,-0.3581 2.3799,0.0121 2.6291,1.1849 2.9762,5.5601 1.7185,8.1253 -0.1668,0.3404 -0.3922,0.9334 -0.6128,1.1869 1.5378,-0.2428 1.7801,-1.3789 2.2941,-2.2111 0.0268,0.7227 -0.2443,1.4334 -0.9851,2.0425 -0.3929,0.3228 -0.8356,0.5421 -0.9482,0.7028 1.3173,0.2304 2.2741,-1.2525 3.0263,-1.242 z m -0.6947,12.3538 -0.0915,0.6407 c -0.3101,-0.8635 -0.6098,-1.5442 -1.2813,-1.618 -1.6385,4.8769 -5.3916,8.3993 -10.3261,10.3409 -0.7051,0.2773 -0.8186,0.0656 -1.3348,0.6497 -1.1881,1.3447 -7.1119,7.1123 -11.6748,0.7845 -1.0123,-1.4039 -1.0998,-2.3244 -1.4691,-2.5332 -3.2274,-1.8261 -7.449,-4.1663 -9.2054,-8.5281 -0.2111,-0.5248 -0.4832,-1.3465 -0.6289,-1.96 -0.4538,0.4063 -0.6381,0.5583 -0.8707,1.3541 -1.2644,-0.7805 0.8701,-4.2851 3.343,-2.4536 -0.223,-0.0218 -0.679,0.002 -1.1132,0.1665 -0.2973,0.1126 -0.5844,0.2915 -0.7799,0.5662 0.9008,2.5674 2.4593,4.5321 4.4647,6.1218 3.568,2.8285 7.6005,4.3541 12.0941,4.6629 2.219,0.1527 4.4955,0.0405 6.6363,-0.5115 4.0051,-1.0325 8.9178,-4.8084 9.9496,-9.0099 -0.4118,-0.4119 -1.1898,0 -1.8304,0.3203 -0.4947,-1.8147 4.1184,-2.1306 4.1184,0.9152 z m -10.0214,-22.0564 c 1.327,-1.3271 3.0659,-3.4778 5.4454,-3.1575 3.2954,0.3695 3.4765,3.5936 3.6644,5.468 -1.9351,-4.3853 -5.4599,-4.4261 -9.1098,-2.3105 z m 7.6419,6.7267 c -0.6603,2.7357 -2.4289,3.5023 -3.5693,3.7066 0.7554,-0.7655 0.8675,-0.8574 1.5122,-2.715 -1.1341,1.9495 -3.1596,3.2641 -5.4476,2.9438 -0.7779,-0.0915 -1.7511,-0.3124 -2.5748,-0.8157 0.2611,-2.7698 4.8185,-9.3692 8.5236,-7.5584 1.2356,0.7779 1.6474,2.7456 1.5559,4.1184 z m -1.3663,4.2637 c -0.3204,0.2113 -1.2183,0.2091 -1.5604,0.0421 0.238,-9e-4 0.7511,-0.167 1.2148,-0.4234 0.3384,-0.187 0.6277,-0.4365 0.8785,-0.6347 -0.1011,0.3697 -0.1726,0.8644 -0.5329,1.016 z m -0.9217,1.2276 c -1.0983,1.6931 -2.9287,2.8829 -5.1251,3.2032 -1.0761,0.0827 -3.7252,-0.4169 -3.1676,-2.09 1.6931,2.6881 4.8149,0.6118 5.8033,-1.219 0.114,-0.1827 1.5284,0.1058 2.4894,-0.0315 z m -3.3329,-0.2503 c -0.6279,1.1883 -2.8251,1.6373 -3.0714,0.1917 0.8873,0.3872 2.5042,0.1796 3.0714,-0.1917 z m -16.8016,9.5396 c -0.9609,-1.1898 -1.0524,-3.0659 -0.3203,-4.2557 0.5086,-1.1602 1.4696,-1.8582 2.5894,-2.2259 2.0623,-0.6772 4.1428,-0.3561 5.926,0.8398 0.8539,0.5729 1.4861,1.289 1.8722,2.164 0.3302,0.7549 0.3133,1.8106 0.0621,2.737 -1.2297,4.5366 -7.6855,3.6961 -10.1294,0.7408 z m 5.1585,0.6028 c -0.9586,-0.0575 -1.941,-0.347 -2.8704,-0.9231 -1.9,-1.2667 -1.934,-2.9033 -1.0304,-4.0765 1.1916,-1.5468 4.0139,-2.2889 6.3385,-0.3165 1.5753,1.369 1.8621,2.6865 1.3656,3.6686 -0.5457,1.0789 -2.0367,1.7533 -3.8033,1.6475 z m 3.6965,10.6132 c -0.9152,0.366 -1.7758,1.2683 -2.9081,1.4785 -2.1565,0.4003 -4.0357,-1.0656 -5.003,-2.8622 1.1244,0.5447 2.542,0.932 4.0195,1.1592 1.3038,0.2003 2.6543,0.2758 3.8916,0.2245 z m -1.4714,5.3959 c -1.6473,-0.6406 -4.1906,-1.2339 -5.9985,-0.5421 1.6373,-1.6373 4.8875,-1.6802 5.9985,0.5421 z m -2.0296,-37.9362 c -0.3789,-1.6814 -0.8599,-2.4352 -1.4739,-3.2434 -0.7896,-1.0393 -2.1235,-1.5791 -3.795,-1.4328 -1.6258,0.1423 -2.0313,0.7994 -3.334,1.3357 l 0.2288,-0.6406 c 3.0043,-3.2503 10.3101,-2.3825 8.3741,3.9811 z m -12.7936,14.0046 c -2.0042,-1.5101 -1.002,-5.3867 -0.4617,-6.5667 -1.0983,-1.2813 -2.782,-2.2437 -3.1031,-4.3941 0.5967,1.3031 1.2118,2.1271 2.4473,2.7678 -0.6379,-1.2132 -0.8673,-2.7226 -0.2745,-3.8439 -0.2487,1.1894 0.5022,3.5221 1.692,4.5746 0.1184,-0.4652 0.2929,-0.8963 0.5488,-1.2788 0.001,-0.002 -0.6142,-2.2871 -0.0209,-3.1565 -0.0901,0.7773 0.0625,1.4931 0.4577,2.1473 0.7079,-1.2613 1.5026,-2.6934 2.6186,-3.6378 1.5438,-1.3061 3.4839,-2.8123 5.5112,-1.6589 0.5093,0.2895 0.9673,0.6992 1.2275,1.1797 1.536,2.2786 0.3561,6.1104 -1.4428,9.0521 -1.6857,2.7569 -5.4632,7.3702 -9.2001,4.8152 z m 8.6752,-5.8135 c -0.8751,0 -1.9821,0.2025 -2.9701,0.0544 -1.1141,-0.1672 -1.7448,-0.507 -2.1005,-1.2137 -0.4293,-0.8534 -0.7408,-2.0113 -0.924,-3.0964 -0.39,1.8277 -0.0912,2.3341 0.3203,3.5235 -0.5491,-0.4576 -1.1744,-1.3515 -1.1744,-2.404 0.3819,-0.7347 1.269,-2.2453 2.4989,-3.3794 1.6856,-1.5544 3.8819,-2.5374 5.0819,-1.0806 1.6016,2.0601 1.021,5.1531 -0.7321,7.5962 z m -0.6191,1.2827 c -1.2812,1.8304 -3.5692,4.6195 -6.5653,3.934 -0.9152,-0.3204 -1.5558,-1.1898 -1.5558,-2.288 1.2433,1.1103 5.217,1.1315 5.0336,-1.6894 0.3535,0.174 0.9006,0.2382 1.4688,0.2704 0.3884,0.022 0.787,0.029 1.1395,0.0461 z m -3.813,0.2605 c -0.4118,1.2664 -2.5622,1.1001 -2.8079,-0.6073 0.7923,0.8745 2.6076,1.0813 2.8079,0.6073 z m -2.4217,-2.5047 c -0.359,0.1946 -1.0798,-0.4733 -0.7882,-1.2224 0.0926,0.4075 0.3656,0.8152 0.7882,1.2224 z"
             style="fill:#e30016;fill-rule:evenodd"
             id="path4" />
        </g>
      </g>
      <path
         d="m 519.63,541.0118 c 5.3547,0 9.7115,4.3577 9.7115,9.7106 0,5.3546 -4.3568,9.7115 -9.7115,9.7115 -5.3528,0 -9.7106,-4.3569 -9.7106,-9.7115 0,-5.3529 4.3578,-9.7106 9.7106,-9.7106 z m 0,1.17 c 4.7092,0 8.5415,3.8332 8.5415,8.5406 0,4.7092 -3.8323,8.5415 -8.5415,8.5415 -4.7074,0 -8.5406,-3.8323 -8.5406,-8.5415 0,-4.7074 3.8332,-8.5406 8.5406,-8.5406 z m -4.6243,13.6449 v -11.3452 h 4.8232 c 1.212,0 2.0923,0.1029 2.6417,0.3069 0.5495,0.2031 0.99,0.5648 1.32,1.0851 0.3309,0.5229 0.4946,1.1178 0.4946,1.7889 0,0.8503 -0.2511,1.5557 -0.75,2.1103 -0.4997,0.552 -1.2497,0.9034 -2.2457,1.0457 0.4963,0.2906 0.906,0.6077 1.2283,0.954 0.3223,0.3455 0.7551,0.9583 1.302,1.8412 l 1.3869,2.2131 h -2.7386 l -1.6569,-2.4694 c -0.5889,-0.8829 -0.99,-1.4374 -1.2069,-1.6672 -0.2168,-0.2297 -0.4465,-0.3857 -0.6891,-0.4731 -0.2434,-0.084 -0.6266,-0.126 -1.1546,-0.126 h -0.462 v 4.7357 z m 2.2929,-6.5477 h 1.6929 c 1.0988,0 1.7854,-0.0454 2.0606,-0.138 0.2717,-0.0926 0.486,-0.2537 0.642,-0.4809 0.1525,-0.2271 0.2322,-0.5091 0.2322,-0.8503 0,-0.3831 -0.1028,-0.6891 -0.3068,-0.924 -0.2032,-0.2357 -0.4912,-0.3831 -0.8632,-0.4465 -0.1851,-0.024 -0.7423,-0.0369 -1.6723,-0.0369 h -1.7854 z"
         style="fill:#1b1918;fill-rule:evenodd"
         id="path5" />
      <path
         d="m 218.0673,699.7697 9.6177,-35.8928 h 10.8864 l -0.1258,24.48 12.9175,-24.48 h 10.9116 l -9.6173,35.8928 h -6.7176 l 7.5464,-28.2566 -14.648,28.2566 h -6.9849 l 0.5278,-28.2566 -7.5962,28.2566 z m 51.7442,-17.9966 -5.9207,-1.103 c 1.3824,-2.5398 3.0977,-4.4197 5.1372,-5.6395 2.0398,-1.2197 4.7514,-1.8297 8.1269,-1.8297 3.0663,0 5.2591,0.3591 6.5685,1.0862 1.3005,0.7268 2.1157,1.6458 2.4253,2.7655 0.3101,1.1194 0.0709,3.1665 -0.7308,6.1577 l -2.2493,8.0206 c -0.6111,2.281 -0.9547,3.9685 -1.0287,5.0547 -0.0737,1.0863 0.0244,2.2476 0.2946,3.4841 h -6.8176 c -0.0545,-0.4513 -0.101,-1.1197 -0.1228,-2.0052 10e-4,-0.4094 -0.0108,-0.6767 -0.0272,-0.8019 -1.4788,1.1528 -2.9625,2.0134 -4.4538,2.59 -1.4913,0.5763 -2.99,0.8688 -4.5023,0.8688 -2.6654,0 -4.5759,-0.7268 -5.724,-2.1807 -1.1497,-1.4454 -1.4261,-3.2834 -0.8305,-5.506 0.3917,-1.4621 1.0942,-2.7737 2.105,-3.9269 1.0086,-1.1446 2.2235,-2.0301 3.6567,-2.6399 1.425,-0.61 3.3897,-1.1446 5.8941,-1.6044 3.3695,-0.6015 5.7526,-1.1695 7.1277,-1.6874 l 0.1859,-0.6937 c 0.3583,-1.3368 0.2877,-2.2892 -0.2094,-2.8658 -0.508,-0.5681 -1.6685,-0.8521 -3.4816,-0.8521 -1.2282,0 -2.2456,0.2424 -3.0628,0.7353 -0.8232,0.4845 -1.605,1.3451 -2.3604,2.5733 z m 7.7329,5.5644 c -0.9555,0.2925 -2.4449,0.6432 -4.4677,1.0528 -2.0148,0.4093 -3.3755,0.8104 -4.0634,1.1948 -1.0664,0.6432 -1.7323,1.4454 -1.9942,2.4228 -0.2597,0.9691 -0.1222,1.7963 0.4085,2.4981 0.5303,0.7019 1.347,1.0528 2.4582,1.0528 1.2367,0 2.5327,-0.4093 3.8778,-1.2197 0.9949,-0.6268 1.7478,-1.3788 2.2487,-2.2811 0.3322,-0.5847 0.724,-1.7044 1.165,-3.3502 z m 9.7169,5.1131 7.2,-1.0525 c -0.0635,1.3284 0.2591,2.3392 0.9777,3.0243 0.7083,0.6937 1.8779,1.0361 3.4905,1.0361 1.7796,0 3.2038,-0.3257 4.2806,-0.9774 0.7246,-0.4595 1.1912,-1.078 1.397,-1.8465 0.1389,-0.5182 0.0884,-0.9524 -0.1457,-1.2951 -0.2554,-0.3257 -0.9411,-0.635 -2.0537,-0.9105 -5.2271,-1.2283 -8.4445,-2.348 -9.6608,-3.3588 -1.6852,-1.4119 -2.1889,-3.367 -1.5197,-5.8652 0.6067,-2.2643 2.0087,-4.1609 4.2001,-5.6982 2.1918,-1.5372 5.1548,-2.3059 8.8895,-2.3059 3.5592,0 6.0514,0.5847 7.4696,1.7461 1.4159,1.1699 2.1495,2.8908 2.19,5.1718 l -6.789,1.203 c -0.003,-1.0193 -0.3268,-1.8045 -0.9584,-2.3476 -0.6318,-0.5431 -1.6713,-0.8105 -3.1167,-0.8105 -1.8212,0 -3.1918,0.2506 -4.1221,0.7603 -0.6225,0.3594 -1.0071,0.8271 -1.1591,1.3952 -0.1321,0.493 -0.0184,0.9108 0.3492,1.2535 0.5035,0.4595 2.4784,1.1027 5.9307,1.9383 3.4523,0.8354 5.7441,1.8547 6.8732,3.0663 1.1185,1.2197 1.3782,2.9324 0.7917,5.1216 -0.6381,2.3811 -2.183,4.4365 -4.6389,6.1492 -2.4475,1.7127 -5.6271,2.5733 -9.5372,2.5733 -3.5424,0 -6.1574,-0.7186 -7.8466,-2.1473 -1.6809,-1.4286 -2.5149,-3.367 -2.4919,-5.8235 z m 38.3114,-10.6775 -5.9208,-1.103 c 1.3825,-2.5398 3.0977,-4.4197 5.1373,-5.6395 2.0398,-1.2197 4.7514,-1.8297 8.1269,-1.8297 3.0662,0 5.2591,0.3591 6.5684,1.0862 1.3006,0.7268 2.1155,1.6458 2.4254,2.7655 0.3101,1.1194 0.0708,3.1665 -0.7308,6.1577 l -2.2493,8.0206 c -0.6112,2.281 -0.9547,3.9685 -1.0287,5.0547 -0.0737,1.0863 0.0244,2.2476 0.2945,3.4841 h -6.8176 c -0.0544,-0.4513 -0.1009,-1.1197 -0.1227,-2.0052 0.001,-0.4094 -0.0108,-0.6767 -0.0272,-0.8019 -1.4789,1.1528 -2.9625,2.0134 -4.4541,2.59 -1.491,0.5763 -2.9897,0.8688 -4.502,0.8688 -2.6654,0 -4.576,-0.7268 -5.724,-2.1807 -1.1497,-1.4454 -1.4261,-3.2834 -0.8306,-5.506 0.3918,-1.4621 1.0942,-2.7737 2.1051,-3.9269 1.0085,-1.1446 2.2235,-2.0301 3.6566,-2.6399 1.425,-0.61 3.3897,-1.1446 5.8941,-1.6044 3.3696,-0.6015 5.7527,-1.1695 7.1277,-1.6874 l 0.186,-0.6937 c 0.3583,-1.3368 0.2877,-2.2892 -0.2095,-2.8658 -0.508,-0.5681 -1.6685,-0.8521 -3.4815,-0.8521 -1.2282,0 -2.2456,0.2424 -3.0628,0.7353 -0.8232,0.4845 -1.605,1.3451 -2.3604,2.5733 z m 7.7329,5.5644 c -0.9559,0.2925 -2.4449,0.6432 -4.4677,1.0528 -2.0149,0.4093 -3.3755,0.8104 -4.0635,1.1948 -1.0664,0.6432 -1.7322,1.4454 -1.9941,2.4228 -0.2597,0.9691 -0.1222,1.7963 0.4084,2.4981 0.5304,0.7019 1.347,1.0528 2.4582,1.0528 1.2368,0 2.5328,-0.4093 3.8778,-1.2197 0.995,-0.6268 1.7479,-1.3788 2.2487,-2.2811 0.3323,-0.5847 0.724,-1.7044 1.1651,-3.3502 z m 10.2124,12.4322 9.6173,-35.8928 h 6.8678 l -9.6174,35.8928 z m 31.1694,-8.2213 6.5588,1.1531 c -1.5511,2.5146 -3.4588,4.428 -5.7092,5.7481 -2.2564,1.3119 -4.8144,1.9718 -7.6635,1.9718 -4.5201,0 -7.4741,-1.4788 -8.8458,-4.4365 -1.0769,-2.3729 -1.1358,-5.364 -0.1667,-8.9816 1.1554,-4.3112 3.1899,-7.6949 6.0911,-10.1347 2.9033,-2.448 6.0792,-3.6677 9.5219,-3.6677 3.8599,0 6.5667,1.2784 8.121,3.8349 1.5457,2.5566 1.5653,6.4752 0.0501,11.7556 h -17.1946 c -0.4964,2.0384 -0.37,3.6258 0.3866,4.7622 0.7483,1.1364 1.9162,1.7045 3.4869,1.7045 1.0777,0 2.0582,-0.2926 2.9421,-0.8773 0.8918,-0.5848 1.6962,-1.5291 2.4213,-2.8324 z m 2.2683,-6.9681 c 0.485,-1.9968 0.3827,-3.5173 -0.3172,-4.5533 -0.6976,-1.0446 -1.7453,-1.5625 -3.149,-1.5625 -1.4955,0 -2.8797,0.5513 -4.1508,1.6458 -1.2707,1.0947 -2.1475,2.5903 -2.6345,4.47 z"
         style="fill:#621522;fill-rule:evenodd"
         id="path6" />
      <g
         id="Layer1004">
        <path
           d="m 167.2136,575.612 c 4.8129,-5.0135 10.6286,-8.6233 17.0459,-8.6233 6.0162,0 11.2302,4.2114 12.8345,10.0271 1.8049,6.4173 1.2033,15.6421 0.4011,22.0594 l -0.8021,7.42 c -0.4011,1.8049 -0.8022,7.0189 -1.0027,11.0298 2.2059,-2.0054 4.6124,-4.6125 5.6151,-5.6152 3.0081,-3.8102 6.0162,-7.8211 8.8238,-11.6313 2.2059,-5.4146 4.8129,-10.8292 8.4227,-15.4417 6.2167,-9.0243 16.2437,-17.8481 27.875,-17.8481 4.4119,0 9.2249,2.0054 13.4362,4.4119 3.4092,-2.607 8.2222,-3.6097 12.4335,-3.6097 0.4011,0 1.0027,0 1.4038,0 h 9.6259 l -5.214,8.2222 c -2.2059,3.4092 -3.8103,9.0243 -4.6124,12.8346 l -0.2006,0.401 -1.8048,4.4119 c -0.8022,6.6179 -2.4065,13.4362 -3.2087,20.2546 -0.2005,1.0027 -0.4011,3.8103 -0.4011,5.8157 3.0082,-1.6043 7.42,-5.8157 9.0244,-7.2195 6.2167,-7.0189 12.0324,-14.84 17.2464,-22.661 0,-0.6017 0.2006,-1.0027 0.2006,-1.6044 1.2032,-9.8265 7.4199,-18.2492 15.8426,-23.2627 l 2.4065,-1.6043 2.607,1.2033 c 5.2141,2.4064 9.0244,7.821 8.2222,13.6367 -0.6016,5.4146 -4.0108,10.8292 -8.0216,14.84 l 2.607,9.4254 0.8022,3.0081 c 2.4065,-2.0054 4.8129,-4.0108 7.0189,-6.0162 3.6097,-4.2113 7.6205,-8.0216 11.0297,-12.233 l 9.4254,-34.0919 c -7.0189,0 -11.0297,-4.4119 -10.2276,-11.4308 0.4011,-2.8075 1.4038,-5.4146 1.8049,-8.2221 l 1.4038,-11.4308 8.0216,8.0216 c 0.8021,0.8021 3.0081,2.2059 4.2113,2.2059 3.4092,0 9.8265,-3.8102 12.6341,-5.6151 l 11.4308,-6.8184 -16.6449,60.9643 c 1.2033,-1.2032 2.607,-2.4065 3.8103,-3.4092 4.2113,-3.8102 11.6313,-10.4281 17.447,-10.4281 6.4173,0 8.6232,7.6206 9.2248,12.6341 l 0.6016,6.4173 h -6.4172 c -2.0054,0 -8.4227,4.0108 -10.2276,5.4146 v 0 l -0.2005,0.2005 c -4.2114,2.4065 -8.4227,5.8157 -11.4308,9.626 1.2032,3.0081 2.607,6.0162 4.2113,8.8238 1.2033,2.0054 5.2141,8.6232 7.8211,8.6232 1.4038,0 3.6097,-1.4038 4.813,-2.4065 l 0.2005,-0.2005 h 0.2005 c 3.0081,-1.8049 8.6233,-10.0271 10.8292,-13.0352 v -0.2005 l 0.2005,-0.2005 c 2.206,-2.6071 4.2114,-5.4146 6.2168,-8.2222 1.6043,-3.4092 3.6097,-6.6178 5.8157,-9.626 6.2167,-9.2248 16.0432,-18.0486 27.6745,-18.0486 4.6124,0 9.4254,2.2059 13.4362,4.6124 3.6097,-2.607 8.2222,-3.6097 12.634,-3.6097 0.4011,0 0.8022,0 1.2033,0 h 9.8265 l -5.4146,8.4227 c -2.0054,3.0081 -3.6098,9.0243 -4.6125,12.6341 l -0.2005,0.6016 -1.8049,4.0108 c -0.8021,6.8184 -2.2059,13.4362 -3.0081,20.2546 -0.2005,1.0027 -0.401,3.8103 -0.401,6.0162 3.0081,-1.8049 7.4199,-5.8157 9.0243,-7.2195 6.4173,-7.42 12.2329,-15.4416 17.6475,-23.4632 0.2005,-0.8022 0.4011,-1.8049 0.4011,-2.607 0.2005,-0.2006 0,-0.8022 0,-1.2033 l -6.0162,-4.4119 7.6205,-4.2113 c 3.2087,-1.8049 7.8211,-3.4092 11.4308,-3.4092 6.4173,0 8.4227,6.2168 8.0216,11.6313 0.8022,-1.0027 1.6043,-2.0054 2.4065,-3.0081 5.214,-6.6178 14.0378,-14.84 22.8616,-14.84 2.8075,0 5.0135,1.2033 7.2194,2.8076 l 0.6017,0.6016 0.6016,0.6016 c 1.8048,2.8076 2.607,5.8157 2.2059,9.0244 -0.6016,5.0135 -7.42,11.4308 -11.0297,14.6394 l -8.0216,6.4173 -0.8022,-9.6259 c -1.0027,0.6016 -1.8048,1.4038 -2.2059,1.8049 -3.4092,3.6097 -6.4173,7.821 -9.0243,11.8318 l -0.2006,0.2006 c -4.4118,6.4173 -8.4227,13.4362 -12.0324,20.4551 -1.8048,3.4092 -5.4146,10.6287 -5.8156,14.4389 l -0.6017,4.2114 -3.0081,1.2032 c -2.4064,1.0027 -5.4146,2.4065 -8.0216,2.4065 -6.8183,0 -9.4254,-5.4146 -8.8237,-11.4308 0.401,-1.8049 0.8021,-3.6097 1.2032,-5.4146 0.2005,-0.8021 0.4011,-1.6043 0.6016,-2.4065 -6.2167,6.6179 -15.4416,14.6395 -24.6664,14.6395 -9.8265,0 -12.6341,-8.8238 -13.0351,-17.447 -2.0054,2.8075 -4.2114,5.6151 -6.6179,8.2221 -5.0135,5.6152 -14.0378,13.6368 -21.8589,13.6368 -5.8156,0 -10.6286,-4.0108 -12.0324,-9.4254 -0.6016,-2.206 -1.0027,-4.6125 -1.2032,-7.0189 -5.4146,5.0135 -12.233,10.2275 -18.6503,10.2275 -6.4172,0 -12.634,-6.4173 -16.6448,-10.8292 -2.0054,-2.2059 -4.0108,-4.8129 -5.4146,-7.42 -0.8021,3.8103 -1.6043,7.6206 -2.2059,11.4308 -0.2006,2.0054 0.2005,4.2114 0,6.4173 l -0.6016,3.6098 -3.4092,1.0027 c -2.8076,1.0027 -6.2168,2.2059 -9.0243,2.2059 -6.6179,0 -8.8238,-5.8157 -8.0216,-11.4308 0.6016,-5.214 2.2059,-10.2276 3.2086,-15.0405 v -0.2006 l 1.0027,-3.2086 c -1.6043,1.2032 -3.4092,2.607 -5.0135,3.8102 0.2005,2.4065 0.4011,5.0136 0,7.42 -0.8022,7.019 -4.6124,14.439 -10.2276,18.8509 -5.4145,5.214 -11.8318,8.8237 -19.4524,8.8237 -4.0108,0 -8.8237,-1.4037 -11.4308,-4.6124 -2.4064,-2.607 -4.2113,-7.6205 -3.6097,-11.2303 0.6016,-5.4146 3.2087,-10.2275 7.42,-13.6367 4.2114,-3.8103 9.0243,-7.0189 13.8373,-10.2276 l -1.2033,-3.8103 c -0.2005,-0.401 -0.2005,-0.8021 -0.401,-1.2032 -4.0108,5.4146 -8.4227,10.8292 -13.2357,15.6422 -6.2167,6.8183 -15.8427,15.4416 -25.6691,15.4416 -9.626,0 -12.4335,-8.8238 -12.8346,-17.447 -2.0054,2.8075 -4.2114,5.6151 -6.6178,8.2221 -5.0135,5.4146 -14.0379,13.8373 -22.0595,13.8373 -5.6151,0 -10.6286,-4.0108 -12.0324,-9.4254 -0.4011,-2.0054 -0.8021,-4.0108 -1.0027,-6.0162 -5.0135,5.0135 -11.2302,9.8265 -17.2464,9.8265 -6.2168,0 -10.4281,-4.4119 -11.8319,-10.027 l -0.2006,-0.4011 v -0.2006 c -1.4037,-7.6205 -1.0027,-16.6448 0,-24.4659 l 0.6017,-5.4146 c 0.401,-3.4092 0.8021,-7.0189 0.6016,-10.4281 -1.0027,0.8021 -1.8049,1.8049 -2.206,2.2059 -4.4118,5.2141 -8.2221,11.4308 -11.4307,17.4471 -3.2087,6.4173 -6.6179,12.8346 -9.626,19.4524 -0.8021,1.8049 -3.0081,6.0162 -3.2086,7.8211 0,1.2032 0.4011,2.0054 0.2005,3.6097 l -0.6016,5.0135 h -5.0135 c -2.0054,0 -4.2114,1.0027 -6.6178,1.0027 -6.0162,0 -9.626,-4.813 -8.8238,-10.6286 0.4011,-2.6071 1.2032,-5.2141 2.0054,-7.6206 2.0054,-7.42 0.8022,-2.8075 2.8076,-11.0297 -1.0027,0.8022 -2.0054,1.6043 -3.0081,2.4065 v 0 l -0.2006,0.2005 c -0.8021,0.4011 -3.6097,1.6044 -3.6097,1.6044 l -0.2006,2.2059 v 0 c -3.2086,6.2168 -8.0216,11.4308 -13.8372,15.4416 -10.4281,7.2195 -22.6611,11.0298 -35.2951,11.0298 -10.027,0 -18.2492,-4.813 -16.8454,-15.8428 0.6016,-4.2113 2.0054,-8.6232 3.0081,-12.634 l 12.0324,-43.9184 v -0.2005 c 0.4011,-1.0027 0.8022,-2.4065 1.4038,-3.6098 -3.2086,3.0081 -6.0162,6.2168 -8.6232,9.4254 l -7.0189,9.2249 -2.607,-11.0297 c -0.4011,-2.4065 -0.8022,-5.2141 -0.4011,-7.6206 1.2032,-9.8264 9.4254,-18.2491 17.8481,-23.2627 10.027,-5.8156 21.8588,-9.8264 33.6907,-9.8264 6.0162,0 13.0351,1.8048 17.447,5.8156 4.813,4.0108 6.8184,10.4281 6.0162,16.4444 -1.0027,9.0243 -6.4173,16.6448 -13.0351,22.8616 2.607,1.6043 5.0135,3.8102 6.6178,6.4173 1.4038,2.0054 2.6071,4.6124 3.2087,7.2194 0.6016,-0.6016 1.0027,-1.0027 1.6043,-1.6043 v 0 0 c 3.8103,-3.6097 7.42,-7.42 10.6286,-11.6313 l 10.2276,-36.2979 c 0,0 0,0 0,0 -11.2303,0 -13.0351,-10.8292 -12.0324,-19.653 l 1.2032,-9.0243 7.42,4.813 c 1.8049,1.2032 4.4119,2.8076 6.6178,2.8076 5.0135,0 10.8292,-2.0054 15.6422,-3.4092 l 9.2248,-2.8076 z m -69.788,-12.8346 c 1.8048,2.2059 2.607,5.214 2.2059,8.2221 v 0.4011 l -0.2005,0.4011 c -1.0027,3.4092 -2.0054,6.6178 -3.2087,9.8265 2.0054,-0.8022 4.0108,-1.0027 6.0162,-1.0027 h 1.8049 c 3.6097,-3.6097 8.4227,-9.0243 8.8238,-13.2357 0.6016,-4.813 -2.4065,-6.0162 -6.6179,-6.0162 -3.0081,0 -6.0162,0.6016 -8.8237,1.4038 z m -7.42,40.5092 -5.4146,19.2519 c -0.2006,2.0054 -0.6016,4.0108 -1.2033,6.0162 -0.2005,0.8021 -0.401,1.6043 -0.6016,2.4065 0,0.2005 0,0.4011 0,0.4011 0.6016,0.8021 4.2114,1.0027 5.2141,1.0027 4.8129,0 10.2275,-2.0054 14.0378,-4.813 3.2086,-3.2087 6.6178,-8.2222 7.0189,-12.8346 0.4011,-2.206 0.2005,-5.8157 -1.0027,-8.0216 -2.206,-2.206 -5.6151,-3.8103 -8.6232,-4.4119 -0.6017,0.2005 -1.2033,0.4011 -1.8049,0.4011 -1.6043,0.401 -3.4092,0.6016 -5.0135,0.6016 -0.8022,0 -1.8049,0 -2.607,0 z m 161.0338,-13.6368 c -2.6071,-1.8048 -5.8157,-3.6097 -8.2222,-3.6097 -4.0108,0 -7.42,4.6124 -9.0243,7.6205 -4.0108,7.8211 -6.8184,17.046 -7.8211,25.6692 0,0.8022 -0.2005,3.0081 -0.2005,4.6125 2.2059,-1.8049 4.813,-5.0136 5.8157,-6.2168 7.2194,-8.8238 13.4362,-18.4497 19.4524,-28.0757 z m 183.2937,-0.2005 c -2.607,-1.8049 -5.8156,-3.4092 -8.4227,-3.4092 -3.8102,0 -7.2194,4.6124 -8.8237,7.6205 -4.0108,7.8211 -6.6178,16.8454 -7.6205,25.4687 -0.2006,0.8021 -0.4011,3.0081 -0.2006,4.813 2.0054,-2.0055 4.6124,-5.0136 5.6151,-6.2168 7.2195,-8.8238 13.4362,-18.6503 19.4524,-28.2762 z"
           style="fill:#ffffff;fill-rule:evenodd"
           id="path7" />
        <path
           d="m 157.9887,594.4628 c 6.8184,-11.8319 16.0432,-24.0649 26.2708,-24.0649 4.6124,0 8.2221,3.4092 9.2248,7.6206 1.8049,5.6151 1.2033,14.6394 0.4011,20.6556 l -0.8022,7.2195 c -0.2005,2.206 -1.8048,16.4443 0.2006,17.447 2.2059,0 9.2248,-7.42 10.8292,-9.2248 3.0081,-4.0108 6.2167,-8.0217 9.2248,-12.0325 2.0054,-5.4146 4.6124,-10.6286 8.0216,-15.241 5.8157,-8.2222 14.84,-16.4444 25.0675,-16.4444 4.6125,0 9.8265,2.8076 13.8373,5.4146 2.607,-3.4092 8.0216,-4.4119 12.0324,-4.4119 0.4011,0 1.0027,0 1.4038,0 h 3.0081 l -1.6043,2.8076 c -2.4065,3.6097 -4.2113,9.8265 -5.214,13.8373 v 0.2005 l -1.8049,4.4119 c -1.0027,6.8184 -2.4065,13.8373 -3.4092,20.6557 0,1.2032 -1.0027,10.8292 1.0027,10.8292 4.0108,0 11.0297,-6.4173 13.8373,-9.2249 6.4173,-7.42 12.634,-15.6421 18.2491,-23.8643 0,-0.8022 0,-1.6043 0.2006,-2.4065 1.0027,-8.4227 6.4173,-16.0432 14.0378,-20.6557 l 0.8022,-0.6016 1.0027,0.4011 c 3.6097,1.8049 6.6178,5.6151 6.0162,10.027 -0.6017,5.0135 -4.2114,10.6287 -8.4227,14.0379 l 3.2086,11.6313 2.206,8.0216 c 4.2113,-3.0081 7.6205,-6.2167 11.6313,-9.6259 4.0108,-4.4119 7.8211,-8.2222 11.6313,-13.0351 l 11.0297,-40.1082 c -1.6043,0.4011 -3.6097,0.8022 -4.8129,0.8022 -4.813,0 -7.2195,-2.607 -6.6178,-7.42 0.2005,-2.607 1.4037,-5.214 1.6043,-8.2222 l 0.6016,-4.2113 2.8076,2.8076 c 1.6043,1.6043 4.6124,3.4092 6.8183,3.4092 4.4119,0 10.6287,-3.8103 14.4389,-6.2168 l 3.8103,-2.206 -18.2492,66.9806 c 4.2114,-5.2141 8.8238,-10.2276 13.6368,-14.4389 3.4091,-3.0081 10.6286,-9.626 15.0405,-9.626 4.0108,0 5.214,6.8184 5.6151,9.626 l 0.2005,2.4065 h -2.4064 c -3.0081,0 -9.626,4.2113 -12.233,6.0162 v 0 0 c -5.0135,3.0081 -10.2275,7.6205 -13.8373,12.233 2.4065,6.2167 9.2249,21.6583 16.2438,21.6583 2.4065,0 5.0135,-1.6043 6.8184,-3.0081 l 0.2005,-0.2005 h 0.2005 c 3.4092,-2.206 9.2249,-10.6287 11.6314,-14.0379 v -0.2005 h 0.2005 c 2.206,-2.8076 4.4119,-5.8157 6.4173,-8.6232 1.6043,-3.4092 3.6097,-6.4173 5.8157,-9.4254 5.6151,-8.4228 14.4389,-16.4444 24.6664,-16.4444 4.813,0 10.027,2.8076 14.0378,5.6152 2.6071,-3.6098 7.8211,-4.6125 12.0324,-4.6125 0.4011,0 0.8022,0 1.2033,0 h 3.2086 l -1.8048,2.8076 c -2.206,3.4092 -4.2114,10.027 -5.0135,13.8373 v 0.2005 l -2.0054,4.2114 c -1.0027,7.0189 -2.4065,13.8373 -3.2087,20.8562 -0.2005,1.2032 -1.2032,10.8292 1.0027,10.8292 3.8103,0 11.0297,-6.6178 13.8373,-9.2249 6.6178,-7.6205 12.8346,-16.0432 18.4497,-24.4659 0.2005,-1.2033 0.4011,-2.4065 0.6016,-3.6097 0.2006,-0.8022 0,-3.4092 -0.8021,-3.8103 l -2.206,-1.8049 2.607,-1.4038 c 2.8076,-1.6043 6.8184,-3.0081 9.8265,-3.0081 4.2113,0 4.813,5.0135 4.4119,8.2222 -0.2006,1.8049 -1.2033,4.4119 -1.6043,6.2167 -1.2033,3.8103 -2.4065,7.6206 -3.4092,11.2303 l -1.0027,3.2087 c 4.6124,-7.6206 9.4254,-15.2411 14.84,-21.6584 4.4118,-5.6152 12.634,-13.6368 20.054,-13.6368 2.0054,0 3.6097,1.2033 5.0135,2.206 l 0.2005,0.2005 0.2006,0.2006 c 1.2032,2.0054 2.0054,4.2113 1.8048,6.6178 -0.6016,3.8103 -7.2194,10.027 -10.027,12.233 l -2.607,2.2059 -0.4011,-3.2086 c 0,-1.4038 -0.8021,-3.8103 -2.607,-3.8103 -1.6043,0 -4.6124,2.8076 -5.6151,3.8103 -3.6098,3.6097 -6.8184,8.0216 -9.4254,12.4335 -4.6125,6.6178 -8.8238,13.6367 -12.4335,20.6557 -2.0054,4.0108 -5.6151,11.6313 -6.2168,15.8427 l -0.2005,2.0054 -1.2032,0.6016 c -2.0055,0.8021 -4.6125,2.0054 -6.6179,2.0054 -4.4119,0 -5.6151,-3.4092 -5.214,-7.42 0.2005,-1.6043 0.6016,-3.4092 1.0027,-5.0135 0.8021,-2.8076 1.4038,-5.8157 2.2059,-8.8238 v 0 l 1.8049,-7.42 c -2.607,3.4092 -5.6151,6.6178 -8.4227,9.6259 -5.6151,6.0163 -14.84,14.439 -23.0621,14.439 -10.8292,0 -10.027,-15.8427 -9.0243,-23.6638 0.2005,-1.2033 0.401,-2.4065 0.401,-3.4092 -3.8102,6.6178 -8.4227,13.2357 -13.6367,19.0513 -4.2113,4.813 -12.8346,12.4335 -19.2519,12.4335 -4.2113,0 -7.6205,-2.8075 -8.6232,-6.6178 -1.2032,-4.813 -1.6043,-10.2276 -1.0027,-15.4416 -0.6016,0.8022 -1.4038,1.6043 -2.0054,2.4065 -4.4119,4.8129 -13.4362,13.4362 -20.2546,13.4362 -5.0135,0 -11.0297,-6.2168 -14.0378,-9.626 -3.8102,-4.0108 -6.8183,-9.6259 -9.0243,-15.241 l -2.4065,7.821 c -0.6016,4.4119 -1.8048,8.8238 -2.2059,13.4363 -0.4011,2.0054 0,4.2113 -0.2005,6.2167 l -0.2006,1.4038 -1.4038,0.4011 c -2.0054,0.8021 -5.6151,2.0054 -7.821,2.0054 -4.2114,0 -5.0135,-4.0108 -4.4119,-7.42 0.4011,-4.6124 2.0054,-10.027 3.2086,-14.6395 l 4.0108,-15.0405 c -4.8129,4.6124 -9.8264,9.0243 -15.4416,12.8346 0.4011,2.8076 0.6016,6.0162 0.2006,8.8238 -0.6017,5.8156 -3.8103,12.634 -9.0243,16.6448 -4.813,4.6125 -10.6287,7.8211 -17.046,7.8211 -3.0081,0 -7.0189,-1.0027 -8.6232,-3.2086 -1.8049,-2.0054 -3.4092,-5.8157 -3.0081,-8.6233 0.6016,-4.4119 2.8076,-8.4227 6.2168,-11.4308 4.6124,-4.0108 10.6286,-7.8211 15.8426,-11.2303 l -2.0054,-6.6178 c -1.0027,-2.607 -1.8048,-5.2141 -2.607,-7.8211 -5.0135,7.2195 -10.8292,14.6395 -17.0459,21.0568 -5.6151,6.0162 -14.6395,14.2384 -23.0621,14.2384 -10.8292,0 -9.8265,-16.0433 -8.8238,-23.6638 0.2005,-1.2033 0.4011,-2.4065 0.4011,-3.4092 -3.8103,6.6178 -8.4227,13.2357 -13.6368,19.0513 -4.2113,4.6125 -12.8345,12.6341 -19.4524,12.6341 -4.2113,0 -7.6205,-2.8076 -8.6232,-6.8184 -1.2032,-4.4119 -1.6043,-9.4254 -1.2032,-14.2384 -0.2006,0.4011 -0.6017,0.8022 -0.8022,1.2033 -4.2113,5.0135 -12.634,14.2384 -19.6529,14.2384 -4.6125,0 -7.42,-3.4092 -8.4227,-7.42 v -0.2006 h -0.2006 c -1.2032,-7.2194 -0.8021,-15.8427 0,-23.2627 l 0.8022,-5.6151 c 0.4011,-4.0108 0.8022,-8.4227 0.4011,-12.4335 -0.2006,-0.6017 -0.6017,-3.6098 -1.4038,-3.8103 -2.0054,0 -5.6151,3.8103 -6.8184,5.4146 -4.6124,5.214 -8.6232,11.8319 -12.0324,17.8481 -3.2086,6.6178 -6.6178,13.2357 -9.6259,19.8535 -0.8022,1.8049 -3.4092,6.8184 -3.6097,8.8238 -0.2006,1.0027 0.401,2.4065 0.2005,3.6097 l -0.2005,1.8049 h -1.8049 c -2.0054,0 -4.4119,1.0027 -6.6178,1.0027 -3.8103,0 -5.8157,-2.8076 -5.2141,-6.4173 0.2006,-2.206 1.2033,-5.2141 1.8049,-7.42 1.2032,-4.6124 2.607,-9.2249 3.6097,-13.8373 v -0.2005 h 0.2005 c 0.8022,-2.6071 1.6044,-5.6152 2.206,-8.2222 l 0.2005,-0.4011 c -4.4119,4.4119 -9.2248,8.4227 -14.4389,12.0324 l -1.6043,1.6044 c -3.0081,6.4173 -7.6205,12.0324 -13.6367,16.0432 -10.2276,7.0189 -21.6584,10.4281 -33.2897,10.4281 -8.0216,0 -14.4389,-3.2086 -13.2357,-11.8319 0.4011,-3.6097 2.0054,-8.4227 2.8076,-12.2329 L 79.778,580.2244 v 0 c 0.4011,-1.6043 2.0054,-5.6151 2.206,-7.0189 0.2005,-0.6016 -0.4011,-2.0054 -0.6017,-2.4065 l -1.4037,-1.8049 2.2059,-1.0027 c 2.4065,-1.2032 7.6205,-3.8102 10.027,-3.8102 3.2087,0 4.2114,3.6097 3.8103,6.4173 v 0 0.2005 c -1.2033,3.6097 -2.4065,7.2195 -3.6097,10.8292 l -11.2303,40.1081 c -0.4011,2.0054 -0.8022,4.0108 -1.2032,5.8157 -0.2006,1.0027 -0.6017,2.2059 -0.6017,3.0081 -0.6016,4.6124 5.2141,5.4146 8.6233,5.4146 5.6151,0 11.6313,-2.206 16.2437,-5.8157 4.0108,-3.8103 7.8211,-9.6259 8.4227,-14.84 0.4011,-3.6097 0,-8.0216 -1.6043,-10.8292 -2.8076,-3.0081 -7.2195,-5.0135 -11.4308,-5.8157 -0.8022,0.2006 -1.8049,0.4011 -2.607,0.6017 -1.4038,0.2005 -3.0081,0.401 -4.4119,0.401 -1.0027,0 -2.0054,0 -2.8076,0 h -2.4065 l 0.8022,-2.2059 c 1.0027,-3.2086 2.8076,-7.42 5.0135,-10.027 v 0 h 0.2006 c 2.2059,-2.4065 5.8156,-3.4092 8.8237,-3.4092 h 0.6016 l 0.4011,0.4011 c 0.4011,0.2005 0.8022,0.401 1.2033,0.6016 4.8129,-4.2114 11.2302,-11.2303 12.0324,-17.2465 0.8021,-7.0189 -3.8103,-10.027 -10.2276,-10.027 -16.0432,0 -30.081,12.4335 -39.9075,24.867 l -2.4065,3.2086 -0.8021,-3.6097 c -0.4011,-1.8048 -0.8022,-4.4119 -0.4011,-6.2167 1.0027,-8.8238 8.6232,-16.2438 16.0432,-20.6557 9.8265,-5.8157 21.0567,-9.4254 31.8859,-9.4254 5.2141,0 11.4308,1.6043 15.2411,5.0135 3.6097,3.0081 5.4146,8.2222 4.6124,13.2357 -1.2032,9.4254 -8.0216,17.8481 -15.8427,23.8643 4.0108,1.8049 7.8211,4.2113 10.027,7.6205 2.206,3.4092 3.6098,7.8211 3.8103,12.233 2.2059,-1.8049 4.6124,-3.8103 6.6178,-6.0162 4.0108,-3.8103 7.8211,-8.0216 11.2303,-12.4335 l 11.8318,-42.3141 c -1.6043,0.4011 -3.2086,0.8022 -4.8129,0.8022 -8.6233,0 -9.2249,-8.8238 -8.4227,-15.6422 l 0.4011,-3.4092 2.607,1.8049 c 2.4065,1.6043 5.4146,3.2086 8.6232,3.2086 5.4146,0 11.4308,-1.8048 16.6449,-3.4091 l 3.0081,-1.0027 -14.84,53.9454 c -1.2033,3.8102 -2.206,7.42 -3.4092,11.0297 z m 98.2647,-5.4146 c -3.6097,-2.8076 -9.0243,-6.6178 -13.4362,-6.6178 -5.4146,0 -9.8265,5.0135 -12.2329,9.6259 -4.2114,8.2222 -7.0189,18.0487 -8.2222,26.6719 -0.2005,2.2059 -0.8021,10.027 2.607,10.027 2.0054,0 8.2222,-7.2194 9.4254,-8.8238 7.0189,-8.6232 13.6368,-18.8508 19.653,-28.4767 l 0.2005,-0.4011 0.6016,-0.2005 c 0.4011,-0.4011 1.0027,-1.2033 1.4038,-1.8049 z m 49.5335,40.1081 c -4.2114,3.0081 -10.8292,8.2222 -11.2303,11.4308 -0.2005,1.8049 1.0027,2.607 2.607,2.607 2.0054,0 3.8103,-1.4037 5.2141,-2.8075 1.8048,-2.0054 3.0081,-5.4146 3.4092,-8.0216 0.2005,-1.0027 0.2005,-2.206 0,-3.2087 z m 133.7603,-40.1081 c -3.6097,-3.0081 -9.0243,-6.6178 -13.6368,-6.6178 -5.4145,0 -9.6259,5.214 -12.0324,9.6259 -4.2113,8.2222 -6.8183,17.8481 -8.0216,26.6719 -0.2005,2.0054 -0.8021,10.027 2.4065,10.027 2.0054,0 8.2222,-7.2194 9.4254,-8.8238 7.2194,-8.8237 13.6367,-19.0513 19.6529,-28.4767 l 0.2006,-0.6016 0.6016,-0.2006 c 0.6016,-0.4011 1.0027,-1.0027 1.4038,-1.6043 z"
           style="fill:#e30016;fill-rule:evenodd"
           id="path8" />
      </g>
    </g>
  </g>
</svg>
